/* XPM */
static char *result[] = {
/* columns rows colors chars-per-pixel */
"32 32 184 2 ",
"   c #0E0B06",
".  c #0F0D09",
"X  c #120F09",
"o  c #17140F",
"O  c #3F2E00",
"+  c #26221C",
"@  c #28221A",
"#  c #2E2B25",
"$  c #312D25",
"%  c #35332E",
"&  c #39352F",
"*  c #393632",
"=  c #3D3932",
"-  c #483808",
";  c #563F00",
":  c #5C4301",
">  c #5B460A",
",  c #564718",
"<  c #624901",
"1  c #6D5202",
"2  c #6B5108",
"3  c #7D5F03",
"4  c #745801",
"5  c #6F5711",
"6  c #725A13",
"7  c #49453E",
"8  c #534A3B",
"9  c #5B5134",
"0  c #5F543A",
"q  c #554926",
"w  c #65562F",
"e  c #6C5E34",
"r  c #4C4A46",
"t  c #4D4C4B",
"y  c #464340",
"u  c #514D44",
"i  c #514F4C",
"p  c #5A5446",
"a  c #52514D",
"s  c #59564D",
"d  c #5C584D",
"f  c #565047",
"g  c #565552",
"h  c #5D5B54",
"j  c #635D4C",
"k  c #615A47",
"l  c #625E54",
"z  c #6C644D",
"x  c #676354",
"c  c #6B6555",
"v  c #68655B",
"b  c #716B54",
"n  c #6E6A64",
"m  c #676663",
"M  c #736E62",
"N  c #716F6B",
"B  c #7B766D",
"V  c #797569",
"C  c #787774",
"Z  c #846503",
"A  c #8C6C07",
"S  c #906E06",
"D  c #9C790A",
"F  c #977408",
"G  c #876B18",
"H  c #8E7016",
"J  c #977819",
"K  c #A17C0B",
"L  c #A27E12",
"P  c #9C7D24",
"I  c #957D32",
"U  c #857442",
"Y  c #817D75",
"T  c #AC850B",
"R  c #B38A0D",
"E  c #B98F0F",
"W  c #B18A13",
"Q  c #A6882F",
"!  c #B49129",
"~  c #B8993A",
"^  c #C49A18",
"/  c #C5990B",
"(  c #CFA112",
")  c #CCA01B",
"_  c #D3A314",
"`  c #DCAB16",
"'  c #E9B517",
"]  c #F2BD1A",
"[  c #F1BC15",
"{  c #C8A228",
"}  c #CAA83B",
"|  c #DCB539",
" . c #F0BF25",
".. c #F6C21B",
"X. c #FCC51B",
"o. c #FFCC1C",
"O. c #FFC917",
"+. c #FFD31F",
"@. c #FFE51F",
"#. c #F9C828",
"$. c #FFD323",
"%. c #FFDC21",
"&. c #FFD429",
"*. c #E9C13D",
"=. c #F5C633",
"-. c #FDCD34",
";. c #FFD731",
":. c #FFE422",
">. c #FFEA24",
",. c #FFF526",
"<. c #FFFE2A",
"1. c #FFEE3D",
"2. c #FFFF3C",
"3. c #FFF637",
"4. c #A89752",
"5. c #B19C5D",
"6. c #868577",
"7. c #85837D",
"8. c #8C867B",
"9. c #888876",
"0. c #928C77",
"q. c #97917F",
"w. c #BAA665",
"e. c #D9B956",
"r. c #D3B764",
"t. c #FDD34F",
"y. c #FFDB46",
"u. c #EAD655",
"i. c #FFFF4A",
"p. c #FFF05C",
"a. c #D5C374",
"s. c #EACB60",
"d. c #FADA76",
"f. c #FFFF69",
"g. c #868684",
"h. c #8D8B87",
"j. c #8F8E8B",
"k. c #938F85",
"l. c #92918D",
"z. c #9D9A8B",
"x. c #9B9689",
"c. c #969493",
"v. c #9C9994",
"b. c #9D9C9A",
"n. c #A09B90",
"m. c #A6A495",
"M. c #AAA394",
"N. c #A3A29C",
"B. c #ABA79A",
"V. c #ACAB9E",
"C. c #B2AC9E",
"Z. c #ADACA5",
"A. c #AEADA8",
"S. c #B3ADA1",
"D. c #BDB8AD",
"F. c #BBB9B3",
"G. c #C1B387",
"H. c #CDCA96",
"J. c #E4CC84",
"K. c #E4CF89",
"L. c #E8D78C",
"P. c #E6D498",
"I. c #FFE982",
"U. c #FFFF8D",
"Y. c #FFFB87",
"T. c #F3E59E",
"R. c #F8F799",
"E. c #C5C1BA",
"W. c #E6D9B3",
"Q. c #F2EDA0",
"!. c #FFF4AF",
"~. c #EAE3BA",
"^. c #D6D4C8",
"/. c #E1DFD7",
"(. c #E5E1CD",
"). c #FFFFC1",
"_. c #EAE9DB",
"`. c #F0ECE3",
"'. c #FDFDE5",
"]. c #FCFAE9",
"[. c #F6F6F5",
"{. c #FCFCFC",
"}. c ivory",
"|. c None",
/* pixels */
"|.|.|.|.|.|.|.|.|.|.|.|.|.|.|.|.|.|.|.|.|.|.|.|.|.|.|.|.|.|.|.|.",
"|.|.|.|.l |.|.|.|.|.|.|.|.|.|.|.|.|.|.|.|.|.|.|.|.|.|.j |.|.|.|.",
"|.|.|.* r c |.|.|.|.|.|.|.|.|.|.|.|.|.|.|.|.|.|.|.|.p p x |.|.|.",
"|.|.|.y - 7 |.|.|.|.|.|.|.|.|.|.|.|.|.|.|.|.|.|.|.8 k 5 h |.|.|.",
"|.|.|.t > O r |.|.|.|.|.|.|.|.|.|.|.|.|.|.|.|.|.|.d J < t |.|.|.",
"|.|.X t 2 : - s |.|.|.|.|.|.|.|.|.|.|.|.|.|.|.|.f P A : t |.|.|.",
"|.|.o g 1 1 < , x |.|.|.|.|.|.|.|.|.|.|.|.|.|.r I K A : i |.|.|.",
"|.|.o t 6 4 3 4 9 |.|.|.|.|.|.|.|.|.|.|.|.|.|.U E D Z > t |.|.|.",
"|.|.  t e 3 A S Z d |.|.|.|.|.|.|.|.|.|.|.|.j ^ R D 3 q t |.|.|.",
"|.|.|.r a G F W R H v |.|.|.9.9.9.9.|.|.|.s { ( R D 6 t s |.|.|.",
"|.|.|.% t a P E ( / U b n N v l l v N B z 4.] _ R H u t l |.|.|.",
"|.|.|.  t w e ^ ` [ _ 0.|.|.|.|.|.|.|.|.0.&.] _ L w 9 a |.|.|.|.",
"|.|.|.|.# i P ^ ' o.O.} m.|.|.|.|.|.|.8.u.%..._ T G t b |.|.|.|.",
"|.|.|.|.|.* l ~ ' +.:.O.G.|.|.|.|.|.|.H.,.%.X.` Q h l |.|.|.|.|.",
"|.|.|.|.|.|.% N w.$.>.>.=.^.|.|.|.|.E.i.,.:.X.5.C j |.|.|.|.|.|.",
"|.|.|.|.|.|.|.@ c.a.>.<.@.J._.|.|.S.R.<.,.$.w.c.|.|.|.|.|.|.|.|.",
"|.|.|.|.l |.|.C M.#.>.<.<.$.].|.|.].i.<.,.o.W x.v.|.|.d |.|.|.|.",
"|.|.|.t x |.M c.| u.L.Q.U.,.d.{.`.U.2.Y.Q.K.} J j.q.|.* g |.|.|.",
"|.|.= a |.|.N z.| ` { (.[.}.;.'.}.2.'.[._.=.' ! k.7.|.|.t c |.|.",
"|.|.. r x |.|.l C.s.[ r.[.{.).t.f.!.{.[.d.X.e.Z.6.|.|.= i |.|.|.",
"|.|.|.+ g |.|.|.& S.L...=.y.3.,.>. .*.-.o.J.F.|.|.|.|.g |.|.|.|.",
"|.|.|.|.* n |.|.|.  v.~.1.>.,.,.>.:.+.-.W.D.|.|.|.|.m c |.|.|.|.",
"|.|.|.|.|.7 C |.|.|.|.n (.p.>.:.%.#.t.(.M.|.|.|.|.C M |.|.|.|.|.",
"|.|.|.|.|.|.r g.z.|.|.|.# E.I.$.O.d.^.|.|.|.|.q.g.V |.|.|.|.|.|.",
"|.|.|.|.|.|.|.= h.N.|.|.|.|.6.P.P.C.|.|.|.|.n.j.|.|.|.|.|.|.|.|.",
"|.|.|.|.|.|.|.|.+ 7.N.|.|.|.|.# |.|.|.|.|.m.h.|.|.|.|.|.|.|.|.|.",
"|.|.|.|.|.|.|.|.|.|.l b.V.|.|.|.|.|.|.V.b.B |.|.|.|.|.|.|.|.|.|.",
"|.|.|.|.|.|.|.|.|.|.|.|.V b.B.|.|.M.b.Y |.|.|.|.|.|.|.|.|.|.|.|.",
"|.|.|.|.|.|.|.|.|.|.|.|.|.+ n l.l.B |.|.|.|.|.|.|.|.|.|.|.|.|.|.",
"|.|.|.|.|.|.|.|.|.|.|.|.|.|.|.|.|.|.|.|.|.|.|.|.|.|.|.|.|.|.|.|.",
"|.|.|.|.|.|.|.|.|.|.|.|.|.|.|.|.|.|.|.|.|.|.|.|.|.|.|.|.|.|.|.|.",
"|.|.|.|.|.|.|.|.|.|.|.|.|.|.|.|.|.|.|.|.|.|.|.|.|.|.|.|.|.|.|.|."
};
