/* XPM */
static char *result[] = {
/* columns rows colors chars-per-pixel */
"16 16 102 2 ",
"   c #171513",
".  c #33312E",
"X  c #34322E",
"o  c #323230",
"O  c #373634",
"+  c #393837",
"@  c #3F3E3A",
"#  c #413F3A",
"$  c #574101",
"%  c #6B5104",
"&  c #725600",
"*  c #715607",
"=  c #795D05",
"-  c #4F4835",
";  c #554D35",
":  c #645421",
">  c #6F5D29",
",  c #625638",
"<  c #61573C",
"1  c #6C5F3B",
"2  c #494640",
"3  c #524F45",
"4  c #534F46",
"5  c #57554F",
"6  c #58554E",
"7  c #59564E",
"8  c #58574F",
"9  c #5A574F",
"0  c #5D594E",
"q  c #565350",
"w  c #595750",
"e  c #5E5B52",
"r  c #5E5A54",
"t  c #5C5A56",
"y  c #5E5B57",
"u  c #665E44",
"i  c #696760",
"p  c #716E68",
"a  c #74736D",
"s  c #7A766F",
"d  c #7D7A73",
"f  c #7F7C75",
"g  c #7E7C76",
"h  c #9A7608",
"j  c #8A6E19",
"k  c #927318",
"l  c #8C7329",
"z  c #877E63",
"x  c #A7810B",
"c  c #A38016",
"v  c #A1801F",
"b  c #9E8331",
"n  c #B2912A",
"m  c #AB903C",
"M  c #D8A812",
"N  c #E3B017",
"B  c #E7B418",
"V  c #F8C11B",
"C  c #F7C522",
"Z  c #FFDD23",
"A  c #FECC30",
"S  c #FFD235",
"D  c #FFE824",
"F  c #FFEF24",
"G  c #FFF52B",
"H  c #FFE130",
"J  c #FFE037",
"K  c #FFE13A",
"L  c #9B8646",
"P  c #B29D50",
"I  c #BFA75C",
"U  c #88847A",
"Y  c #9C977B",
"T  c #C9AB4E",
"R  c #DDBB4E",
"E  c #D5B755",
"W  c #DCBD5C",
"Q  c #CBB463",
"!  c #FDDD5A",
"~  c #FFF143",
"^  c #FFFF4B",
"/  c #FFEB5D",
"(  c #DAC67C",
")  c #F0D363",
"_  c #F5D369",
"`  c #E4CB7F",
"'  c #F8F271",
"]  c #8E8B83",
"[  c #959388",
"{  c #94928A",
"}  c #9C988F",
"|  c #B9AC87",
" . c #B4AE8E",
".. c #C9BE8B",
"X. c #DFCD98",
"o. c #FFEE89",
"O. c #FFFF91",
"+. c #EFEDBA",
"@. c #FEF0C2",
"#. c #FFFFF9",
"$. c #FFFFFA",
"%. c None",
/* pixels */
"%.%.%.%.%.%.%.%.%.%.%.%.%.%.%.%.",
"%.. - %.%.%.%.%.%.%.%.%.%., %.%.",
"%.O $ ; %.%.%.%.%.%.%.%.1 = w %.",
"%.+ * % u %.%.%.%.%.%.< c & 8 %.",
"%.o > h j %.%.%.%.%.%.n x : 9 %.",
"%.  4 v M L 7 %.2 e P N k 3 %.%.",
"%.%.X b V C  .%.%.Y H B l 0 %.%.",
"%.%.%.# Q F ) %.%.' D I %.%.%.%.",
"%.%.%.s R / ~ @.+.^ ! m [ %.%.%.",
"%.@ %.i E W $.o.O.#._ T U %.6 %.",
"%.%.5 %.q ( J G Z A ` %.%.r %.%.",
"%.%.%.a %.%...K S X.%.%.f %.%.%.",
"%.%.%.%.g %.%.z | %.%.] %.%.%.%.",
"%.%.%.%.%.y { %.%.} d %.%.%.%.%.",
"%.%.%.%.%.%.%.t p %.%.%.%.%.%.%.",
"%.%.%.%.%.%.%.%.%.%.%.%.%.%.%.%."
};
