/* XPM */
static char *result[] = {
/* columns rows colors chars-per-pixel */
"64 64 229 2 ",
"   c #000000",
".  c #0B0500",
"X  c #120C04",
"o  c #1A140C",
"O  c #1D1710",
"+  c #231D14",
"@  c #251C0C",
"#  c #362603",
"$  c #2B241C",
"%  c #26211B",
"&  c #342A1B",
"*  c #3E300E",
"=  c #3C352A",
"-  c #3A3329",
";  c #302A21",
":  c #4A3400",
">  c #533C01",
",  c #473B1D",
"<  c #473C29",
"1  c #443E34",
"2  c #5B4300",
"3  c #55410A",
"4  c #574619",
"5  c #644B00",
"6  c #674D01",
"7  c #6D5201",
"8  c #725501",
"9  c #7B5D03",
"0  c #775B09",
"q  c #745B16",
"w  c #665118",
"e  c #7F6104",
"r  c #7D631B",
"t  c #584A27",
"y  c #4B4233",
"u  c #4B4439",
"i  c #564D3A",
"p  c #5C523A",
"a  c #4E442D",
"s  c #625439",
"d  c #675522",
"f  c #776535",
"g  c #73612D",
"h  c #4D4A45",
"j  c #4C4C4C",
"k  c #494641",
"l  c #514E48",
"z  c #575245",
"x  c #5C5444",
"c  c #52514D",
"v  c #59554D",
"b  c #5E5A4D",
"n  c #555453",
"m  c #5C5B53",
"M  c #5B5B5B",
"N  c #585856",
"B  c #4F504F",
"V  c #655C48",
"C  c #635E52",
"Z  c #6E634B",
"A  c #67614E",
"S  c #73674D",
"D  c #656257",
"F  c #6E6654",
"G  c #63615A",
"H  c #6D685A",
"J  c #756D5C",
"K  c #766B55",
"L  c #7D795E",
"P  c #7E7047",
"I  c #636262",
"U  c #6B6B6B",
"Y  c #6C6B67",
"T  c #797467",
"R  c #757574",
"E  c #7C7B7B",
"W  c #7A7875",
"Q  c #846504",
"!  c #8C6B05",
"~  c #856405",
"^  c #916E05",
"/  c #957209",
"(  c #9E7A0A",
")  c #997506",
"_  c #967616",
"`  c #A27D0B",
"'  c #A47D05",
"]  c #876D21",
"[  c #967F38",
"{  c #887335",
"}  c #827449",
"|  c #847A5E",
" . c #837659",
".. c #847B64",
"X. c #827F76",
"o. c #AC850C",
"O. c #AB8308",
"+. c #B38B0D",
"@. c #B68B06",
"#. c #BC920F",
"$. c #BE9004",
"%. c #AB8515",
"&. c #BD9314",
"*. c #B38D19",
"=. c #9D843E",
"-. c #B7942B",
";. c #B18E27",
":. c #C99B0B",
">. c #CA9D12",
",. c #C49812",
"<. c #D09F09",
"1. c #D5A40D",
"2. c #CDA015",
"3. c #D2A313",
"4. c #DCAB15",
"5. c #D8A916",
"6. c #E1AD0C",
"7. c #E0AE15",
"8. c #E4B115",
"9. c #EAB615",
"0. c #EEBA18",
"q. c #E8B518",
"w. c #F2BB13",
"e. c #F3BD19",
"r. c #C19D31",
"t. c #D6AB26",
"y. c #D2AB30",
"u. c #EAB925",
"i. c #F0BE25",
"p. c #FCC41A",
"a. c #FFCB1C",
"s. c #FAC618",
"d. c #FFD31E",
"f. c #FFDB1D",
"g. c #FFD016",
"h. c #FFE61E",
"j. c #FCCA26",
"k. c #FFD521",
"l. c #FFDB21",
"z. c #ECC139",
"x. c #FED737",
"c. c #F5C633",
"v. c #FFE422",
"b. c #FFEC24",
"n. c #FFF226",
"m. c #FFF926",
"M. c #FFFE2B",
"N. c #FFFB38",
"B. c #FFED36",
"V. c #95875C",
"C. c #9D8B48",
"Z. c #A99251",
"A. c #898269",
"S. c #978C66",
"D. c #888579",
"F. c #948D76",
"G. c #969470",
"H. c #A79C7D",
"J. c #BAAC75",
"K. c #B1A052",
"L. c #C8A846",
"P. c #D4B451",
"I. c #E2BF56",
"U. c #D7BB67",
"Y. c #D0BA74",
"T. c #FDD948",
"R. c #FDD957",
"E. c #F1CB4E",
"W. c #FFFB44",
"Q. c #FFF959",
"!. c #FFE958",
"~. c #E8C965",
"^. c #F4D96D",
"/. c #FFE961",
"(. c #FFFC69",
"). c #838383",
"_. c #8E8B83",
"`. c #8C8C8B",
"'. c #928F88",
"]. c #94928D",
"[. c #999488",
"{. c #939393",
"}. c #9B9A94",
"|. c #9B9B9B",
" X c #989895",
".X c #A49C89",
"XX c #B8AC8C",
"oX c #A2A19C",
"OX c #ABA899",
"+X c #B9B498",
"@X c #B4AA8D",
"#X c #A4A4A3",
"$X c #ABAAA9",
"%X c #B6B5A7",
"&X c #BAB9B6",
"*X c #B6AFA3",
"=X c #C0B49D",
"-X c #C3BCA6",
";X c #C4BFB3",
":X c #C9C39E",
">X c #F6DA85",
",X c #E5D189",
"<X c #FFFC89",
"1X c #F6E892",
"2X c #C7C5BB",
"3X c #D3C9A9",
"4X c #E7DCB2",
"5X c #FFFFA9",
"6X c #FEFBB2",
"7X c #F0E4AF",
"8X c #C5C4C4",
"9X c #CBCCCC",
"0X c #D5D2C7",
"qX c #D2D2D2",
"wX c #DBDBDA",
"eX c #DDD9D1",
"rX c #D2CDC3",
"tX c #E4DDC7",
"yX c #E7E6DB",
"uX c #FBF9D4",
"iX c #F8F4C9",
"pX c #E5E5E4",
"aX c #EBEBEB",
"sX c #EAEAE6",
"dX c #F3F3F3",
"fX c #FEFEF4",
"gX c #FEFEFE",
"hX c #F8F5E9",
"jX c None",
/* pixels */
"jXjXjXjXjXjXjXjXjXjXjXjXjXjXjXjXjXjXjXjXjXjXjXjXjXjXjXjXjXjXjXjXjXjXjXjXjXjXjXjXjXjXjXjXjXjXjXjXjXjXjXjXjXjXjXjXjXjXjXjXjXjXjXjX",
"jXjXjXjXjXjXjXjXjXjXjXjXjXjXjXjXjXjXjXjXjXjXjXjXjXjXjXjXjXjXjXjXjXjXjXjXjXjXjXjXjXjXjXjXjXjXjXjXjXjXjXjXjXjXjXjXjXjXjXjXjXjXjXjX",
"jXjXjXjXjXjXjXjXH jXjXjXjXjXjXjXjXjXjXjXjXjXjXjXjXjXjXjXjXjXjXjXjXjXjXjXjXjXjXjXjXjXjXjXjXjXjXjXjXjXjXjXjXjXjXH jXjXjXjXjXjXjXjX",
"jXjXjXjXjXjXjX1 j D jXjXjXjXjXjXjXjXjXjXjXjXjXjXjXjXjXjXjXjXjXjXjXjXjXjXjXjXjXjXjXjXjXjXjXjXjXjXjXjXjXjXjXjXC j L jXjXjXjXjXjXjX",
"jXjXjXjXjXjXjXh j j H jXjXjXjXjXjXjXjXjXjXjXjXjXjXjXjXjXjXjXjXjXjXjXjXjXjXjXjXjXjXjXjXjXjXjXjXjXjXjXjXjXjXV j j G jXjXjXjXjXjXjX",
"jXjXjXjXjXjXo j a h j | jXjXjXjXjXjXjXjXjXjXjXjXjXjXjXjXjXjXjXjXjXjXjXjXjXjXjXjXjXjXjXjXjXjXjXjXjXjXjXjXV j b f j jXjXjXjXjXjXjX",
"jXjXjXjXjXjX- j t # j j S.jXjXjXjXjXjXjXjXjXjXjXjXjXjXjXjXjXjXjXjXjXjXjXjXjXjXjXjXjXjXjXjXjXjXjXjXjXjXs j c ] w j L jXjXjXjXjXjX",
"jXjXjXjXjXjXu j 4 # * j c jXjXjXjXjXjXjXjXjXjXjXjXjXjXjXjXjXjXjXjXjXjXjXjXjXjXjXjXjXjXjXjXjXjXjXjXjXjXc j [ 9 3 j F jXjXjXjXjXjX",
"jXjXjXjXjX  j j d : # , j m jXjXjXjXjXjXjXjXjXjXjXjXjXjXjXjXjXjXjXjXjXjXjXjXjXjXjXjXjXjXjXjXjXjXjXjXv j [ ^ 8 3 j n jXjXjXjXjXjX",
"jXjXjXjXjXX j j q : : # a j J jXjXjXjXjXjXjXjXjXjXjXjXjXjXjXjXjXjXjXjXjXjXjXjXjXjXjXjXjXjXjXjXjXjXx j } ` ! 8 3 j j jXjXjXjXjXjX",
"jXjXjXjXjXO j j q 2 3 : # u j A.jXjXjXjXjXjXjXjXjXjXjXjXjXjXjXjXjXjXjXjXjXjXjXjXjXjXjXjXjXjXjXjXp j S o./ ! 7 : j j jXjXjXjXjXjX",
"jXjXjXjXjX+ j B q 5 2 2 3 : z v jXjXjXjXjXjXjXjXjXjXjXjXjXjXjXjXjXjXjXjXjXjXjXjXjXjXjXjXjXjXjXjXc b ;.` / ~ 7 : B j jXjXjXjXjXjX",
"jXjXjXjXjX$ j n 8 6 6 6 2 2 > j D jXjXjXjXjXjXjXjXjXjXjXjXjXjXjXjXjXjXjXjXjXjXjXjXjXjXjXjXjXjXv B ;.` ` ^ ~ 7 : c j jXjXjXjXjXjX",
"jXjXjXjXjX$ j B r 6 7 7 8 6 2 t j L jXjXjXjXjXjXjXjXjXjXjXjXjXjXjXjXjXjXjXjXjXjXjXjXjXjXjXjXz j C.@.` ( ^ Q 7 : c j | jXjXjXjXjX",
"jXjXjXjXjX$ j j r 7 7 9 9 9 8 5 p c jXjXjXjXjXjXjXjXjXjXjXjXjXjXjXjXjXjXjXjXjXjXjXjXjXjXjX< c } ,.+.` ( ! Q 6 : j j ..jXjXjXjXjX",
"jXjXjXjXjX% j j f 7 7 9 Q Q 9 9 7 v m jXjXjXjXjXjXjXjXjXjXjXjXjXjXjXjXjXjXjXjXjXjXjXjXjXjXv C 2.#.+.` / ! e 5 4 j j jXjXjXjXjXjX",
"jXjXjXjXjX+ j j b 9 0 e ~ ^ ^ ! e 0 j L jXjXjXjXjXjXjXjXjXjXjXjXjXjXjXjXjXjXjXjXjXjXjXjXx j r.>.#.o.` / ! 9 > i j j jXjXjXjXjXjX",
"jXjXjXjXjXo j j j { 9 e ! / ( ( ) Q g j jXjXjXjXjXjXjXjXjXjXjXjXjXjXjXjXjXjXjXjXjXjXjXa j C.5.>.#.o.( / ! 8 4 c j j jXjXjXjXjXjX",
"jXjXjXjXjX  h j j n _ Q ^ / o.o.O.O.! V m jXjXjXjXjXjXjXjXjXjXjXjXjXjXjXjXjXjXjXjXjXjXv Z u.5.>.&.o.( / Q 7 j j j n jXjXjXjXjXjX",
"jXjXjXjXjX  = j j j A / / ( o.+.#.+.O./ N A.jXjXjXjXG.D.D.R R E W R E D.D.G.G.jXjXjXA M y.9.5.>.#.o.` ^ 9 i j j j H jXjXjXjXjXjX",
"jXjXjXjXjXjX; j j j j P ( ` +.#.>.<.#.@.{ I jXp R R W E E D.'.'.`.`.).E E E R W V.p I K.e.9.5.>.#.o.` ! s j j j j | jXjXjXjXjXjX",
"jXjXjXjXjXjX  j j j j j } *.+.,.2.4.3.<.+.| D.jXy T F x a & jXjXjXjX@ < i D T S.jXW A.k.j.q.4.>.&.o./ g j j j j m jXjXjXjXjXjXjX",
"jXjXjXjXjXjXjX; j j x z j Z -.:.5.8.8.4.1.;.E F.jXjXjXjXjXjXjXjXjXjXjXjXjXjXjXjXT E E.d.p.q.4.2.#.*.V j z i j j | jXjXjXjXjXjXjX",
"jXjXjXjXjXjXjX  k j c q 0 ] -.>.5.q.s.e.9.<.Z.`.S.jXjXjXjXjXjXjXjXjXjXjXjXjXjXs '.J.v.d.p.0.4.>.` q q q 7 c j C jXjXjXjXjXjXjXjX",
"jXjXjXjXjXjXjXjXO j j b _ +.&.2.4.0.p.a.s.w.>.[.oXjXjXjXjXjXjXjXjXjXjXjXjXjXjX[.}.B.h.d.p.0.4.>.O./ / ~ z j j jXjXjXjXjXjXjXjXjX",
"jXjXjXjXjXjXjXjX  - j j D &.,.3.7.0.a.d.d.a.w.L.oX-XjXjXjXjXjXjXjXjXjXjXjXjXD.#X^.b.v.d.a.0.4.2.&.o./ x j j  .jXjXjXjXjXjXjXjXjX",
"jXjXjXjXjXjXjXjXjX  1 j B J t.3.8.e.a.k.v.f.g.6.XX&XjXjXjXjXjXjXjXjXjXjXjXp %X:XM.b.v.l.a.e.4.3.,.%.Z j j J jXjXjXjXjXjXjXjXjXjX",
"jXjXjXjXjXjXjXjXjXjX  1 n M T L.q.e.a.k.v.v.d.g.t.&X2XjXjXjXjXjXjXjXjXjXjX*X&XQ.M.b.v.d.a.e.8.3.-.T I n F jXjXjXjXjXjXjXjXjXjXjX",
"jXjXjXjXjXjXjXjXjXjXjX  - I U W J.p.a.l.v.n.b.f.s.Y.8X4XjXjXjXjXjXjXjXjXF.8X1XM.M.n.v.k.a.e.q.K.R U U S jXjXjXjXjXjXjXjXjXjXjXjX",
"jXjXjXjXjXjXjXjXjXjXjXjX  o Y E _..Xx.v.v.n.m.b.f.9.rXqXjXjXjXjXjXjXjXjX0XqXW.M.m.n.v.l.p.u..X).E X.jXjXjXjXjXjXjXjXjXjXjXjXjXjX",
"jXjXjXjXjXjXjXjXjXjXjXjXjXjX  z `.{.OXT.v.n.m.M.h.g.~.wXyXjXjXjXjXjXjX;XwX<XM.M.M.n.v.d.z.OX{.]...jXjXjXjXjXjXjXjXjXjXjXjXjXjXjX",
"jXjXjXjXjXjXjXjXjXjXjXjXjXjXjX& ]. X#XT.v.n.m.M.m.h.w.4XaXjXjXjXjXjXA.aXiXN.M.M.M.b.v.e.;.OX|.}.jXjXjXjXjXjXjXjXjXjXjXjXjXjXjXjX",
"jXjXjXjXjXjXjXjXC jXjXjXjXjXjX`. X#X~.l.v.b.m.M.M.n.l.i.dXfXjXjXjXjXyXdX(.N.M.M.m.b.l.9.@.=.oX X[.jXjXjXjXjXjXC jXjXjXjXjXjXjXjX",
"jXjXjXjXjXjXjXz j G jXjXjXjXD.`.|.Y.a.d.v.b.m.M.M.M.b.s.7XgXhXjXjX-XgXiXM.M.M.M.m.b.l.p.1.) V.|.{.[.jXjXjXjXN j D jXjXjXjXjXjXjX",
"jXjXjXjXjXjXy j j ..jXjXjXT _.{.XXs.x.R.!./.(.Q.W.M.m.h.i.gXgXjXZ gXgXQ.M.M.M.W.!./.R.R.P.r.! S.{.`..XjXjXjX- j j | jXjXjXjXjXjX",
"jXjXjXjXjX& j j D jXjXjXZ D.`.oXu.7.t.L.:XqXwXpXaXuX(.h.g.>XgXfXhXgX5XM.M.(.iXaXpXwXqX-XP.2.O.9 '.`.).H.jXjX  k j c jXjXjXjXjXjX",
"jXjXjXjXjXh j j jXjXjXjXE ).`.J.4.1.4.1.$.Y.wXpXdXdXgX5Xh.9.fXgXgXgXW.M.<XgXfXdXsXwX,Xe.e.7.@.' V.`.).X.jXjXjXo j j D jXjXjXjXjX",
"jXjXjXjX+ j j G jXjXjX  = X.`.|.+Xc.w.w.6.$.3XaXdXfXgXgX<Xg.~.gXgX<XM./.gXgXdXdXsXtXp.p.e.7.>.H.|.`._.A.jXjXjXjXh j j jXjXjXjXjX",
"jXjXjXjX  = j j | jXjXjXjXX T |.#X%XT.s.w.4.r.sXdXgXgXgXgXB.6.uXfXM.l.gXgXgXgXdXsXR.a.j.q.y.-X#X|.F.jXjXjXjXjX< j j J jXjXjXjXjX",
"jXjXjXjXjX  u j n jXjXjXjXjX  i oX$X&X^.a.w.<.Y.dXgXgXgXgX5Xg.E.(.b.>XgXgXgXgXdX1Xk.p.e.I.;X$X$X..jXjXjXjXjX- B j C jXjXjXjXjXjX",
"jXjXjXjXjXjXX j B G jXjXjXjXjXjX+ [.&X8X,Xk.0.3.t.~.^.^.!.W.b.m.m.g.t.y.P.U.U.c.k.a.p.,X8X&XOXjXjXjXjXjXjXjXm j c jXjXjXjXjXjXjX",
"jXjXjXjXjXjXjX+ B N T jXjXjXjXjXjX  J 2X9X4Xx.d.g.g.k.v.m.M.m.m.n.h.d.d.s.a.g.d.a.c.4X8X2X.XjXjXjXjXjXjXjXG N j jXjXjXjXjXjXjXjX",
"jXjXjXjXjXjXjXjX; N I W jXjXjXjXjXjX  = &XqXyXQ.v.b.n.n.m.m.m.m.n.b.v.v.l.k.k.p.E.tX9X2X .jXjXjXjXjXjXjXJ I N  .jXjXjXjXjXjXjXjX",
"jXjXjXjXjXjXjXjXjX= I U D.jXjXjXjXjXjXjX. .XwXwX<Xb.b.n.n.n.b.b.b.b.v.l.k.k.p.^.yXwX-XjXjXjXjXjXjXjXjXT U I  .jXjXjXjXjXjXjXjXjX",
"jXjXjXjXjXjXjXjXjXjXu U R D.jXjXjXjXjXjXjX  F eXpX6XB.b.b.b.b.v.v.l.l.k.a.j.7XyXwX.XjXjXjXjXjXjXjXjXX.R Y | jXjXjXjXjXjXjXjXjXjX",
"jXjXjXjXjXjXjXjXjXjXjXi R E ].jXjXjXjXjXjXjXjX$ ;XaXiX!.v.v.l.l.k.k.a.j.c.iXpXtXjXjXjXjXjXjXjXjXjX_.E U ..jXjXjXjXjXjXjXjXjXjXjX",
"jXjXjXjXjXjXjXjXjXjXjXjXy R ).'.jXjXjXjXjXjXjXjX  F.pXsX(.k.d.d.a.a.p.E.yXsX=XjXjXjXjXjXjXjXjXjX`.).E | jXjXjXjXjXjXjXjXjXjXjXjX",
"jXjXjXjXjXjXjXjXjXjXjXjXjX= E ).].+XjXjXjXjXjXjXjX  a rXaX1Xk.a.p.p.>XpXeX| jXjXjXjXjXjXjXjXH.].).D.K jXjXjXjXjXjXjXjXjXjXjXjXjX",
"jXjXjXjXjXjXjXjXjXjXjXjXjXjX$ X.`.{.OXjXjXjXjXjXjXjXjX. [.yX7Xx.i.4XyX-XjXjXjXjXjXjXjXjXjX.X X`.D.jXjXjXjXjXjXjXjXjXjXjXjXjXjXjX",
"jXjXjXjXjXjXjXjXjXjXjXjXjXjXjXo W `.|.OXjXjXjXjXjXjXjXjXjXy 2XeXtXrX .jXjXjXjXjXjXjXjXjXoX X`._.jXjXjXjXjXjXjXjXjXjXjXjXjXjXjXjX",
"jXjXjXjXjXjXjXjXjXjXjXjXjXjXjXjX  H {.|.#X+XjXjXjXjXjXjXjXjX  ...XjXjXjXjXjXjXjXjXjX@X#X|.{.A.jXjXjXjXjXjXjXjXjXjXjXjXjXjXjXjXjX",
"jXjXjXjXjXjXjXjXjXjXjXjXjXjXjXjXjXjX< _. XoX%XjXjXjXjXjXjXjXjXjXjXjXjXjXjXjXjXjXjX*XoX X].S jXjXjXjXjXjXjXjXjXjXjXjXjXjXjXjXjXjX",
"jXjXjXjXjXjXjXjXjXjXjXjXjXjXjXjXjXjXjXX T  X|.#X%XjXjXjXjXjXjXjXjXjXjXjXjXjXjX+X#X|.|.A.jXjXjXjXjXjXjXjXjXjXjXjXjXjXjXjXjXjXjXjX",
"jXjXjXjXjXjXjXjXjXjXjXjXjXjXjXjXjXjXjXjXjX< _.|.#X$X+XjXjXjXjXjXjXjXjXjXjX+X$XoX|._.V jXjXjXjXjXjXjXjXjXjXjXjXjXjXjXjXjXjXjXjXjX",
"jXjXjXjXjXjXjXjXjXjXjXjXjXjXjXjXjXjXjXjXjXjXjXx ].|.|.#X+XjXjXjXjXjXjX+X#X#X|.[.F jXjXjXjXjXjXjXjXjXjXjXjXjXjXjXjXjXjXjXjXjXjXjX",
"jXjXjXjXjXjXjXjXjXjXjXjXjXjXjXjXjXjXjXjXjXjXjXjX. C [.|.|.#X+XjXjXXXoX|. X].T jXjXjXjXjXjXjXjXjXjXjXjXjXjXjXjXjXjXjXjXjXjXjXjXjX",
"jXjXjXjXjXjXjXjXjXjXjXjXjXjXjXjXjXjXjXjXjXjXjXjXjXjX. C '.{.{. X}.{.{.].J jXjXjXjXjXjXjXjXjXjXjXjXjXjXjXjXjXjXjXjXjXjXjXjXjXjXjX",
"jXjXjXjXjXjXjXjXjXjXjXjXjXjXjXjXjXjXjXjXjXjXjXjXjXjXjXjX. z D.`.`._.F jXjXjXjXjXjXjXjXjXjXjXjXjXjXjXjXjXjXjXjXjXjXjXjXjXjXjXjXjX",
"jXjXjXjXjXjXjXjXjXjXjXjXjXjXjXjXjXjXjXjXjXjXjXjXjXjXjXjXjXjX  1 V jXjXjXjXjXjXjXjXjXjXjXjXjXjXjXjXjXjXjXjXjXjXjXjXjXjXjXjXjXjXjX",
"jXjXjXjXjXjXjXjXjXjXjXjXjXjXjXjXjXjXjXjXjXjXjXjXjXjXjXjXjXjXjXjXjXjXjXjXjXjXjXjXjXjXjXjXjXjXjXjXjXjXjXjXjXjXjXjXjXjXjXjXjXjXjXjX",
"jXjXjXjXjXjXjXjXjXjXjXjXjXjXjXjXjXjXjXjXjXjXjXjXjXjXjXjXjXjXjXjXjXjXjXjXjXjXjXjXjXjXjXjXjXjXjXjXjXjXjXjXjXjXjXjXjXjXjXjXjXjXjXjX",
"jXjXjXjXjXjXjXjXjXjXjXjXjXjXjXjXjXjXjXjXjXjXjXjXjXjXjXjXjXjXjXjXjXjXjXjXjXjXjXjXjXjXjXjXjXjXjXjXjXjXjXjXjXjXjXjXjXjXjXjXjXjXjXjX",
"jXjXjXjXjXjXjXjXjXjXjXjXjXjXjXjXjXjXjXjXjXjXjXjXjXjXjXjXjXjXjXjXjXjXjXjXjXjXjXjXjXjXjXjXjXjXjXjXjXjXjXjXjXjXjXjXjXjXjXjXjXjXjXjX",
"jXjXjXjXjXjXjXjXjXjXjXjXjXjXjXjXjXjXjXjXjXjXjXjXjXjXjXjXjXjXjXjXjXjXjXjXjXjXjXjXjXjXjXjXjXjXjXjXjXjXjXjXjXjXjXjXjXjXjXjXjXjXjXjX"
};
